<svg width="981" height="238" viewBox="0 0 981 238" fill="none" xmlns="http://www.w3.org/2000/svg">
<path d="M279.54 185.8C271.14 185.8 263.76 184.24 257.4 181.12C251.16 177.88 246.3 173.38 242.82 167.62C239.34 161.74 237.6 154.84 237.6 146.92V122.08C237.6 114.04 239.34 107.14 242.82 101.38C246.3 95.62 251.16 91.18 257.4 88.06C263.76 84.82 271.14 83.2 279.54 83.2C292.02 83.2 301.98 86.44 309.42 92.92C316.86 99.28 320.76 107.98 321.12 119.02H298.62C298.26 113.86 296.4 109.9 293.04 107.14C289.8 104.26 285.3 102.82 279.54 102.82C273.54 102.82 268.8 104.5 265.32 107.86C261.84 111.1 260.1 115.78 260.1 121.9V146.92C260.1 153.04 261.84 157.78 265.32 161.14C268.8 164.5 273.54 166.18 279.54 166.18C285.3 166.18 289.8 164.8 293.04 162.04C296.4 159.16 298.26 155.14 298.62 149.98H321.12C320.76 161.02 316.86 169.78 309.42 176.26C301.98 182.62 292.02 185.8 279.54 185.8ZM386.93 185.62C378.53 185.62 371.21 184.06 364.97 180.94C358.85 177.7 354.05 173.2 350.57 167.44C347.21 161.56 345.53 154.66 345.53 146.74V122.26C345.53 114.34 347.21 107.5 350.57 101.74C354.05 95.86 358.85 91.36 364.97 88.24C371.21 85 378.53 83.38 386.93 83.38C395.45 83.38 402.77 85 408.89 88.24C415.01 91.36 419.75 95.86 423.11 101.74C426.59 107.5 428.33 114.28 428.33 122.08V146.74C428.33 154.66 426.59 161.56 423.11 167.44C419.75 173.2 415.01 177.7 408.89 180.94C402.77 184.06 395.45 185.62 386.93 185.62ZM386.93 166C392.93 166 397.55 164.38 400.79 161.14C404.15 157.78 405.83 152.98 405.83 146.74V122.26C405.83 115.9 404.15 111.1 400.79 107.86C397.55 104.62 392.93 103 386.93 103C381.05 103 376.43 104.62 373.07 107.86C369.71 111.1 368.03 115.9 368.03 122.26V146.74C368.03 152.98 369.71 157.78 373.07 161.14C376.43 164.38 381.05 166 386.93 166ZM486.399 185.8C476.559 185.8 468.579 182.38 462.459 175.54C456.459 168.7 453.459 159.52 453.459 148V121.18C453.459 109.54 456.459 100.3 462.459 93.46C468.459 86.62 476.439 83.2 486.399 83.2C494.559 83.2 501.039 85.54 505.839 90.22C510.639 94.78 513.039 101.08 513.039 109.12L507.999 103.9H513.219L512.499 80.32V52.6H534.999V184H513.039V165.1H507.999L513.039 159.88C513.039 167.92 510.639 174.28 505.839 178.96C501.039 183.52 494.559 185.8 486.399 185.8ZM494.319 166.36C500.079 166.36 504.519 164.68 507.639 161.32C510.879 157.84 512.499 153.04 512.499 146.92V122.08C512.499 115.96 510.879 111.22 507.639 107.86C504.519 104.38 500.079 102.64 494.319 102.64C488.559 102.64 484.059 104.32 480.819 107.68C477.579 111.04 475.959 115.84 475.959 122.08V146.92C475.959 153.16 477.579 157.96 480.819 161.32C484.059 164.68 488.559 166.36 494.319 166.36ZM602.969 185.8C594.569 185.8 587.249 184.18 581.009 180.94C574.769 177.7 569.909 173.2 566.429 167.44C563.069 161.56 561.389 154.72 561.389 146.92V122.08C561.389 114.28 563.069 107.5 566.429 101.74C569.909 95.86 574.769 91.3 581.009 88.06C587.249 84.82 594.569 83.2 602.969 83.2C611.249 83.2 618.449 84.82 624.569 88.06C630.809 91.3 635.609 95.86 638.969 101.74C642.449 107.5 644.189 114.28 644.189 122.08V139.9H583.169V146.92C583.169 153.88 584.849 159.16 588.209 162.76C591.569 166.24 596.549 167.98 603.149 167.98C608.189 167.98 612.269 167.14 615.389 165.46C618.509 163.66 620.489 161.08 621.329 157.72H643.469C641.789 166.24 637.229 173.08 629.789 178.24C622.469 183.28 613.529 185.8 602.969 185.8ZM622.409 127.3V121.9C622.409 115.06 620.789 109.84 617.549 106.24C614.309 102.52 609.449 100.66 602.969 100.66C596.489 100.66 591.569 102.52 588.209 106.24C584.849 109.96 583.169 115.24 583.169 122.08V125.86L624.029 125.5L622.409 127.3ZM696.319 184L663.739 85H686.779L705.679 145.12C706.759 148.72 707.779 152.44 708.739 156.28C709.819 160.12 710.599 163.18 711.079 165.46C711.679 163.18 712.459 160.12 713.419 156.28C714.379 152.44 715.339 148.78 716.299 145.3L734.839 85H757.699L725.299 184H696.319Z" fill="#A772DB"/>
<path d="M818.648 185.62C810.248 185.62 802.928 184.06 796.688 180.94C790.568 177.7 785.768 173.2 782.288 167.44C778.928 161.56 777.248 154.66 777.248 146.74V122.26C777.248 114.34 778.928 107.5 782.288 101.74C785.768 95.86 790.568 91.36 796.688 88.24C802.928 85 810.248 83.38 818.648 83.38C827.168 83.38 834.488 85 840.608 88.24C846.728 91.36 851.468 95.86 854.828 101.74C858.308 107.5 860.048 114.28 860.048 122.08V146.74C860.048 154.66 858.308 161.56 854.828 167.44C851.468 173.2 846.728 177.7 840.608 180.94C834.488 184.06 827.168 185.62 818.648 185.62ZM818.648 166C824.648 166 829.268 164.38 832.508 161.14C835.868 157.78 837.548 152.98 837.548 146.74V122.26C837.548 115.9 835.868 111.1 832.508 107.86C829.268 104.62 824.648 103 818.648 103C812.768 103 808.148 104.62 804.788 107.86C801.428 111.1 799.748 115.9 799.748 122.26V146.74C799.748 152.98 801.428 157.78 804.788 161.14C808.148 164.38 812.768 166 818.648 166ZM886.438 184V85H908.398V103.9H914.518L908.398 109.12C908.398 100.96 910.738 94.6 915.418 90.04C920.218 85.48 926.758 83.2 935.038 83.2C944.758 83.2 952.498 86.44 958.258 92.92C964.138 99.4 967.078 108.1 967.078 119.02V184H944.578V121.36C944.578 115.36 943.018 110.74 939.898 107.5C936.778 104.26 932.398 102.64 926.758 102.64C921.238 102.64 916.858 104.32 913.618 107.68C910.498 111.04 908.938 115.84 908.938 122.08V184H886.438Z" fill="#689ED2"/>
<rect width="35.1033" height="94.9946" transform="matrix(-1 0 0 1 196 66.4961)" fill="#689ED2"/>
<rect width="31.6402" height="106.213" transform="matrix(-0.554727 -0.832032 -0.89444 0.447189 196 161.503)" fill="#689ED2"/>
<path d="M136.76 71.9785L178.448 92.8223L196 66.4961L136.76 36.8779V71.9785Z" fill="#689ED2"/>
<rect x="6" y="66.4973" width="35.1033" height="94.9946" fill="#A772DB"/>
<rect x="83.8856" y="19" width="35.1033" height="94.9946" fill="#A772DB"/>
<path d="M100.998 173.898V209L6 161.503L23.5518 135.178L100.998 173.898Z" fill="#A772DB"/>
<path d="M65.8955 71.6523L23.5518 92.8232L6 66.4971L65.8955 36.5518V71.6523Z" fill="#A772DB"/>
</svg>
