<svg width="576" height="255" viewBox="0 0 576 255" fill="none" xmlns="http://www.w3.org/2000/svg">
<g clip-path="url(#clip0_63_822)">
<path d="M138.988 214.162C138.971 214.166 138.953 214.167 138.936 214.163C138.919 214.16 138.903 214.152 138.889 214.141C138.875 214.131 138.864 214.117 138.857 214.101C138.849 214.085 138.845 214.068 138.845 214.051V0.195635C138.845 0.173709 138.85 0.152049 138.859 0.13222C138.869 0.112391 138.883 0.0948888 138.899 0.080977C138.916 0.0670652 138.936 0.0570918 138.957 0.0517774C138.979 0.046463 139.001 0.0459404 139.022 0.0502472C147.304 1.62572 156.057 3.70873 163.699 7.25091C163.783 7.29144 163.826 7.35753 163.826 7.44916V202.808C163.826 202.861 163.813 202.913 163.788 202.96C163.763 203.006 163.727 203.046 163.683 203.075C156.119 208.242 147.888 211.938 138.988 214.162Z" fill="#562293"/>
<path d="M169.522 25.0199C205.116 41.8559 230.699 73.9205 239.877 112.15C239.879 112.16 239.877 112.171 239.872 112.18C239.868 112.19 239.86 112.198 239.851 112.203C239.841 112.208 239.831 112.21 239.82 112.208C239.809 112.207 239.8 112.202 239.792 112.194C231.666 103.792 221.737 99.3968 210.003 99.0091C202.101 98.7483 194.768 100.44 188.002 104.084C187.916 104.132 187.849 104.113 187.801 104.026C183.047 95.5833 176.944 88.2654 169.493 82.0728C169.416 82.0093 169.377 81.9265 169.377 81.8243V25.1125C169.377 25.0032 169.425 24.9724 169.522 25.0199Z" fill="#562293"/>
<path d="M41.528 138.385L13.0849 138.383C12.9932 138.383 12.9483 138.337 12.9501 138.245C13.8382 102.152 33.3969 69.2681 64.0896 50.7219C84.8483 38.1789 108.948 33.5582 133.096 36.7356C133.18 36.7461 133.223 36.7946 133.223 36.881L133.239 66.5956C133.239 66.6854 133.195 66.7216 133.106 66.704C114.227 63.2481 96.6414 66.1206 80.3492 75.3215C57.5656 88.1896 43.0771 112.097 41.6417 138.277C41.6403 138.306 41.6277 138.334 41.6066 138.354C41.5854 138.374 41.5573 138.385 41.528 138.385Z" fill="#FA5F01"/>
<path d="M73.2067 244.5C73.1292 244.468 73.0904 244.411 73.0904 244.328V87.304C73.0904 87.2283 73.1212 87.1675 73.1829 87.1217C80.3809 81.8401 88.9667 77.2987 97.7429 75.4536C97.7744 75.447 97.8069 75.4475 97.8382 75.4551C97.8695 75.4628 97.8988 75.4774 97.9238 75.4979C97.9489 75.5184 97.9691 75.5443 97.9831 75.5737C97.9971 75.603 98.0044 75.6352 98.0046 75.6677V251.788C98.0044 251.81 97.9993 251.831 97.9896 251.851C97.9799 251.871 97.9659 251.888 97.9486 251.901C97.9313 251.915 97.9112 251.924 97.8897 251.929C97.8683 251.933 97.8461 251.933 97.8248 251.928C89.4928 249.93 81.0497 247.672 73.2067 244.5Z" fill="#FA5F01"/>
<path d="M576 140.186V141.568C575.553 165.726 552.598 182.557 529.471 175.763C520.131 173.022 512.18 166.345 507.742 157.703C497.908 138.562 506.97 114.777 527.247 107.336C550.626 98.7579 575.067 115.359 576 140.186ZM558.289 137.648C558.289 137.615 558.276 137.583 558.253 137.56C558.229 137.537 558.198 137.524 558.165 137.524H543.61C543.594 137.524 543.578 137.52 543.563 137.514C543.548 137.508 543.534 137.499 543.522 137.487C543.511 137.476 543.502 137.462 543.495 137.447C543.489 137.432 543.486 137.416 543.486 137.399V122.845C543.486 122.828 543.483 122.812 543.477 122.797C543.47 122.782 543.461 122.768 543.45 122.757C543.438 122.745 543.424 122.736 543.409 122.73C543.394 122.724 543.378 122.721 543.362 122.721H536.341C536.325 122.721 536.308 122.724 536.293 122.73C536.278 122.736 536.265 122.745 536.253 122.757C536.241 122.768 536.232 122.782 536.226 122.797C536.22 122.812 536.217 122.828 536.217 122.845V137.399C536.217 137.416 536.213 137.432 536.207 137.447C536.201 137.462 536.192 137.476 536.18 137.487C536.169 137.499 536.155 137.508 536.14 137.514C536.125 137.52 536.109 137.524 536.092 137.524H521.593C521.56 137.524 521.529 137.537 521.505 137.56C521.482 137.583 521.469 137.615 521.469 137.648L521.485 144.735C521.485 144.768 521.498 144.799 521.521 144.823C521.545 144.846 521.576 144.859 521.609 144.859H536.092C536.125 144.859 536.157 144.872 536.18 144.895C536.204 144.919 536.217 144.95 536.217 144.983V159.472C536.217 159.505 536.23 159.536 536.253 159.56C536.276 159.583 536.308 159.596 536.341 159.596H543.428C543.461 159.596 543.492 159.583 543.516 159.56C543.539 159.536 543.552 159.505 543.552 159.472V144.983C543.552 144.95 543.565 144.919 543.588 144.895C543.612 144.872 543.643 144.859 543.676 144.859H558.165C558.198 144.859 558.229 144.846 558.253 144.823C558.276 144.799 558.289 144.768 558.289 144.735V137.648Z" fill="#562293"/>
<path d="M205.539 172.649C182.726 170.508 170.958 144.989 181.695 125.515C186.562 116.688 195.34 110.643 205.496 109.757C205.517 109.755 205.538 109.758 205.557 109.764C205.577 109.771 205.595 109.782 205.61 109.796C205.625 109.81 205.637 109.826 205.645 109.845C205.653 109.864 205.658 109.885 205.658 109.905V120.78C205.658 120.8 205.651 120.819 205.638 120.834C205.626 120.849 205.608 120.859 205.589 120.862C197.963 122.07 191.93 127.05 189.446 134.389C185.324 146.548 192.737 159.533 205.533 161.505C205.616 161.517 205.658 161.565 205.658 161.647V172.541C205.658 172.556 205.655 172.571 205.648 172.585C205.642 172.599 205.633 172.611 205.622 172.622C205.611 172.632 205.598 172.64 205.583 172.644C205.569 172.649 205.554 172.651 205.539 172.649Z" fill="#562293"/>
<path d="M210.35 120.889C210.313 120.883 210.279 120.865 210.255 120.838C210.231 120.81 210.217 120.774 210.218 120.738V109.958C210.217 109.929 210.223 109.9 210.235 109.874C210.247 109.847 210.264 109.823 210.286 109.803C210.307 109.784 210.333 109.769 210.361 109.759C210.389 109.75 210.418 109.747 210.448 109.749C219.9 110.645 228.198 115.856 233.236 123.862C245.46 143.286 234.072 170.402 210.466 172.641C210.434 172.644 210.403 172.641 210.372 172.631C210.342 172.621 210.315 172.605 210.291 172.584C210.268 172.562 210.249 172.537 210.237 172.508C210.224 172.479 210.217 172.448 210.218 172.417V161.669C210.218 161.644 210.226 161.621 210.242 161.602C210.257 161.584 210.279 161.572 210.302 161.568C214.967 160.796 218.835 158.8 221.907 155.581C233.07 143.884 226.979 123.228 210.35 120.889Z" fill="#562293"/>
<path d="M307.781 122.475C307.758 122.475 307.735 122.465 307.719 122.449C307.703 122.433 307.693 122.411 307.693 122.387V110.164C307.693 110.13 307.707 110.097 307.731 110.073C307.756 110.048 307.789 110.035 307.823 110.035C315.251 110.028 322.698 110.029 330.163 110.04C340.911 110.056 351.146 115.16 356.626 124.544C361.265 132.493 362.333 143.085 359.528 151.835C356.256 162.044 347.736 168.465 337.672 171.325C334.926 172.107 332.824 172.34 329.724 172.345C322.423 172.354 315.123 172.355 307.826 172.348C307.791 172.348 307.757 172.334 307.732 172.309C307.707 172.284 307.693 172.251 307.693 172.216V159.995C307.693 159.959 307.708 159.924 307.734 159.898C307.76 159.872 307.794 159.858 307.831 159.858C315.585 159.867 323.358 159.864 331.151 159.85C336.299 159.839 340.638 158.114 344.17 154.674C355.172 143.96 350.324 124.944 334.535 122.461C333.423 122.287 331.77 122.213 329.576 122.239C322.313 122.326 315.048 122.404 307.781 122.475Z" fill="#562293"/>
<path d="M425.328 110.096H376.816C376.745 110.096 376.687 110.154 376.687 110.225V122.327C376.687 122.398 376.745 122.456 376.816 122.456H425.328C425.4 122.456 425.458 122.398 425.458 122.327V110.225C425.458 110.154 425.4 110.096 425.328 110.096Z" fill="#562293"/>
<path d="M264.04 110.101H251.886C251.794 110.101 251.719 110.175 251.719 110.267V172.118C251.719 172.21 251.794 172.285 251.886 172.285H264.04C264.132 172.285 264.207 172.21 264.207 172.118V110.267C264.207 110.175 264.132 110.101 264.04 110.101Z" fill="#562293"/>
<path d="M453.06 110.101H440.879C440.795 110.101 440.726 110.169 440.726 110.254V172.131C440.726 172.216 440.795 172.285 440.879 172.285H453.06C453.145 172.285 453.213 172.216 453.213 172.131V110.254C453.213 110.169 453.145 110.101 453.06 110.101Z" fill="#562293"/>
<path d="M468.669 120.553C465.081 120.534 461.496 120.531 457.913 120.545C457.876 120.545 457.841 120.531 457.814 120.505C457.788 120.479 457.773 120.444 457.773 120.408V110.357C457.773 110.289 457.801 110.223 457.849 110.174C457.898 110.126 457.964 110.098 458.032 110.098C462.819 110.1 467.63 110.099 472.465 110.096C474.279 110.096 475.712 110.199 476.766 110.405C485.254 112.062 490.964 117.748 492.019 126.384C492.021 126.406 492.019 126.427 492.013 126.448C492.007 126.468 491.997 126.487 491.982 126.503C491.968 126.519 491.951 126.532 491.932 126.541C491.913 126.549 491.892 126.554 491.871 126.553H481.572C481.496 126.553 481.442 126.518 481.408 126.448C479.986 123.313 477.53 121.142 474.144 120.645C472.658 120.426 470.388 120.561 468.669 120.553Z" fill="#562293"/>
<path d="M476.494 147.236C476.475 147.239 476.458 147.248 476.444 147.26C476.429 147.272 476.418 147.288 476.411 147.306C476.405 147.324 476.402 147.343 476.405 147.362C476.407 147.381 476.414 147.4 476.425 147.415L494.094 172.097C494.184 172.222 494.152 172.285 493.999 172.285H478.989C478.954 172.285 478.92 172.276 478.889 172.259C478.858 172.243 478.832 172.219 478.812 172.189C473.584 164.262 467.916 156.025 461.21 149.356C460.306 148.457 459.202 147.784 457.898 147.336C457.815 147.308 457.773 147.25 457.773 147.162V137.132C457.773 137.105 457.779 137.078 457.789 137.053C457.799 137.028 457.815 137.005 457.834 136.986C457.853 136.967 457.876 136.951 457.901 136.941C457.926 136.931 457.953 136.926 457.979 136.926C462.174 136.935 466.386 136.933 470.615 136.921C472.067 136.917 473.224 136.8 474.086 136.569C477.119 135.755 479.503 133.973 481.239 131.222C481.285 131.15 481.351 131.113 481.437 131.113H491.939C492.031 131.113 492.074 131.159 492.069 131.251C491.572 140.088 484.654 145.605 476.494 147.236Z" fill="#562293"/>
<path d="M133.165 134.552H103.558C103.52 134.552 103.49 134.583 103.49 134.621V150.54C103.49 150.578 103.52 150.609 103.558 150.609H133.165C133.203 150.609 133.233 150.578 133.233 150.54V134.621C133.233 134.583 133.203 134.552 133.165 134.552Z" fill="#562293"/>
<path d="M425.209 134.946H376.935C376.798 134.946 376.687 135.058 376.687 135.195V147.122C376.687 147.259 376.798 147.37 376.935 147.37H425.209C425.346 147.37 425.458 147.259 425.458 147.122V135.195C425.458 135.058 425.346 134.946 425.209 134.946Z" fill="#562293"/>
<path d="M0 144.169C0 144.116 0 144.063 0 144.011L41.684 144.003C41.7179 144.003 41.7505 144.016 41.7747 144.039C41.7989 144.062 41.8128 144.094 41.8135 144.127C42.3184 164.64 52.4374 181.537 67.3833 195.018C67.4432 195.073 67.4732 195.14 67.4732 195.221V240.947C67.4732 241.086 67.4115 241.123 67.2881 241.056C30.6213 221.005 5.87367 185.607 0 144.169Z" fill="#FA5F01"/>
<path d="M425.302 159.86H376.842C376.756 159.86 376.687 159.93 376.687 160.016V172.06C376.687 172.146 376.756 172.216 376.842 172.216H425.302C425.388 172.216 425.458 172.146 425.458 172.06V160.016C425.458 159.93 425.388 159.86 425.302 159.86Z" fill="#562293"/>
<path d="M291.984 159.929H268.886C268.823 159.929 268.772 159.98 268.772 160.043V172.171C268.772 172.234 268.823 172.285 268.886 172.285H291.984C292.046 172.285 292.097 172.234 292.097 172.171V160.043C292.097 159.98 292.046 159.929 291.984 159.929Z" fill="#562293"/>
<path d="M121.319 254.296H118.475C113.543 254.192 108.625 253.791 103.722 253.091C103.678 253.085 103.637 253.063 103.607 253.029C103.578 252.995 103.561 252.951 103.561 252.906L103.553 220.67C103.553 220.646 103.558 220.622 103.568 220.6C103.579 220.579 103.593 220.56 103.612 220.545C103.63 220.529 103.652 220.518 103.675 220.513C103.698 220.507 103.723 220.506 103.746 220.511C139.289 227.865 174.632 210.231 190.297 177.479C190.309 177.455 190.33 177.436 190.355 177.427C190.38 177.418 190.408 177.42 190.432 177.431C201.368 182.771 212.561 183.282 224.011 178.964C224.182 178.899 224.237 178.953 224.177 179.126C208.721 223.752 168.645 253.25 121.319 254.296Z" fill="#562293"/>
</g>
<defs>
<clipPath id="clip0_63_822">
<rect width="576" height="254.296" fill="white"/>
</clipPath>
</defs>
</svg>
